<svg id="visual" viewBox="0 0 1980 1080" width="1980" height="1080" xmlns="http://www.w3.org/2000/svg" xmlns:xlink="http://www.w3.org/1999/xlink" version="1.1"><rect x="0" y="0" width="1980" height="1080" fill="#fbfdff"></rect><path d="M0 721L47.2 730.2C94.3 739.3 188.7 757.7 283 759.2C377.3 760.7 471.7 745.3 566 737C660.3 728.7 754.7 727.3 848.8 729.3C943 731.3 1037 736.7 1131.2 747.2C1225.3 757.7 1319.7 773.3 1414 775.2C1508.3 777 1602.7 765 1697 742.8C1791.3 720.7 1885.7 688.3 1932.8 672.2L1980 656L1980 1081L1932.8 1081C1885.7 1081 1791.3 1081 1697 1081C1602.7 1081 1508.3 1081 1414 1081C1319.7 1081 1225.3 1081 1131.2 1081C1037 1081 943 1081 848.8 1081C754.7 1081 660.3 1081 566 1081C471.7 1081 377.3 1081 283 1081C188.7 1081 94.3 1081 47.2 1081L0 1081Z" fill="#4facf7"></path><path d="M0 796L47.2 785.5C94.3 775 188.7 754 283 759.3C377.3 764.7 471.7 796.3 566 793C660.3 789.7 754.7 751.3 848.8 749.8C943 748.3 1037 783.7 1131.2 793.3C1225.3 803 1319.7 787 1414 782.3C1508.3 777.7 1602.7 784.3 1697 775.2C1791.3 766 1885.7 741 1932.8 728.5L1980 716L1980 1081L1932.8 1081C1885.7 1081 1791.3 1081 1697 1081C1602.7 1081 1508.3 1081 1414 1081C1319.7 1081 1225.3 1081 1131.2 1081C1037 1081 943 1081 848.8 1081C754.7 1081 660.3 1081 566 1081C471.7 1081 377.3 1081 283 1081C188.7 1081 94.3 1081 47.2 1081L0 1081Z" fill="#2b9dfc"></path><path d="M0 893L47.2 886.2C94.3 879.3 188.7 865.7 283 867.5C377.3 869.3 471.7 886.7 566 895.8C660.3 905 754.7 906 848.8 902.8C943 899.7 1037 892.3 1131.2 891.3C1225.3 890.3 1319.7 895.7 1414 887C1508.3 878.3 1602.7 855.7 1697 844.8C1791.3 834 1885.7 835 1932.8 835.5L1980 836L1980 1081L1932.8 1081C1885.7 1081 1791.3 1081 1697 1081C1602.7 1081 1508.3 1081 1414 1081C1319.7 1081 1225.3 1081 1131.2 1081C1037 1081 943 1081 848.8 1081C754.7 1081 660.3 1081 566 1081C471.7 1081 377.3 1081 283 1081C188.7 1081 94.3 1081 47.2 1081L0 1081Z" fill="#008cff"></path><path d="M0 941L47.2 942.3C94.3 943.7 188.7 946.3 283 950.8C377.3 955.3 471.7 961.7 566 958.3C660.3 955 754.7 942 848.8 926.3C943 910.7 1037 892.3 1131.2 900.2C1225.3 908 1319.7 942 1414 950C1508.3 958 1602.7 940 1697 928.8C1791.3 917.7 1885.7 913.3 1932.8 911.2L1980 909L1980 1081L1932.8 1081C1885.7 1081 1791.3 1081 1697 1081C1602.7 1081 1508.3 1081 1414 1081C1319.7 1081 1225.3 1081 1131.2 1081C1037 1081 943 1081 848.8 1081C754.7 1081 660.3 1081 566 1081C471.7 1081 377.3 1081 283 1081C188.7 1081 94.3 1081 47.2 1081L0 1081Z" fill="#007aff"></path><path d="M0 963L47.2 967.5C94.3 972 188.7 981 283 979.2C377.3 977.3 471.7 964.7 566 967.2C660.3 969.7 754.7 987.3 848.8 999.7C943 1012 1037 1019 1131.2 1013.5C1225.3 1008 1319.7 990 1414 984.3C1508.3 978.7 1602.7 985.3 1697 988.5C1791.3 991.7 1885.7 991.3 1932.8 991.2L1980 991L1980 1081L1932.8 1081C1885.7 1081 1791.3 1081 1697 1081C1602.7 1081 1508.3 1081 1414 1081C1319.7 1081 1225.3 1081 1131.2 1081C1037 1081 943 1081 848.8 1081C754.7 1081 660.3 1081 566 1081C471.7 1081 377.3 1081 283 1081C188.7 1081 94.3 1081 47.2 1081L0 1081Z" fill="#0066ff"></path></svg>